<?xml version="1.0" encoding="utf-8"?>
<!-- Generator: Adobe Illustrator 16.0.0, SVG Export Plug-In . SVG Version: 6.00 Build 0)  -->
<!DOCTYPE svg PUBLIC "-//W3C//DTD SVG 1.1//EN" "http://www.w3.org/Graphics/SVG/1.1/DTD/svg11.dtd">
<svg version="1.1" id="Layer_1" xmlns="http://www.w3.org/2000/svg" xmlns:xlink="http://www.w3.org/1999/xlink" x="0px" y="0px"
	 width="793.701px" height="1122.52px" viewBox="0 0 793.701 1122.52" enable-background="new 0 0 793.701 1122.52"
	 xml:space="preserve">
<title>Low Water</title>
<path id="path6714" fill="#444444" d="M495.204,757.977l57.408-366.45l-38.643,0.371l-52.215,327.436H331.672l-52.213-327.436
	l-38.643-0.371l57.408,366.45H495.204z"/>
<path id="svg_3_3_" fill="#444444" d="M478.879,566.608c-6.315,3.633-14.835,5.057-24.284,5.057c-11.994,0-22.912-2.906-29.18-8.398
	c-6.217,5.608-17.184,8.398-29.326,8.398c-11.994,0-22.814-2.964-29.081-8.457c-6.218,5.667-17.185,8.457-29.473,8.457
	c-8.862,0-16.989-1.191-23.109-4.418l-4.651-19.761c6.365,4.999,16.45,8.224,27.76,8.224c12.289,0,23.255-3.573,29.473-9.24
	c6.267,5.492,17.086,9.24,29.081,9.24c12.143,0,23.109-3.573,29.326-9.183c6.268,5.492,17.186,9.183,29.18,9.183
	c12.24,0,23.06-3.748,29.229-9.415L478.879,566.608z"/>
<path fill="#444444" stroke="#444444" stroke-width="40" stroke-miterlimit="10" d="M277.042,411.715
	c119.899,13.826,119.899,13.826,239.801,0"/>
<polygon fill="#444444" points="456.085,711.317 479.718,563.349 313.709,563.349 337.342,711.317 "/>
</svg>
